HIERARCHY
ROOT Hips
{
	OFFSET 0.000000 0.000000 0.000000
	CHANNELS 6 Xposition Yposition Zposition Zrotation Yrotation Xrotation 
	JOINT Spine1
	{
		OFFSET -0.013727 5.003763 -0.053727
		CHANNELS 3 Zrotation Yrotation Xrotation
		JOINT Spine2
		{
			OFFSET -0.000000 7.125302 -0.029825
			CHANNELS 3 Zrotation Yrotation Xrotation
			JOINT Chest
			{
				OFFSET -0.000001 7.550064 -0.815971
				CHANNELS 3 Zrotation Yrotation Xrotation
				JOINT Neck1
				{
					OFFSET -0.181677 26.311296 -0.553349
					CHANNELS 3 Zrotation Yrotation Xrotation
					JOINT Neck2
					{
						OFFSET -0.000003 7.709397 2.302586
						CHANNELS 3 Zrotation Yrotation Xrotation
						JOINT Head
						{
							OFFSET -0.000005 6.128913 1.953708
							CHANNELS 3 Zrotation Yrotation Xrotation
							JOINT HeadEnd
							{
								OFFSET 0.003598 16.065401 -1.835379
								CHANNELS 3 Zrotation Yrotation Xrotation
								End Site
								{
									OFFSET 0.000000 0.000000 0.000000
								}
							}
							JOINT Jaw
							{
								OFFSET 0.002637 0.475592 3.094940
								CHANNELS 3 Zrotation Yrotation Xrotation
								End Site
								{
									OFFSET 0.000000 0.000000 0.000000
								}
							}
							JOINT LeftEye
							{
								OFFSET 3.206380 5.380208 7.586883
								CHANNELS 3 Zrotation Yrotation Xrotation
								End Site
								{
									OFFSET 0.000000 0.000000 0.000000
								}
							}
							JOINT RightEye
							{
								OFFSET -3.222440 5.361867 7.558233
								CHANNELS 3 Zrotation Yrotation Xrotation
								End Site
								{
									OFFSET 0.000000 0.000000 0.000000
								}
							}
						}
					}
				}
				JOINT LeftShoulder
				{
					OFFSET 1.621652 23.237164 5.113413
					CHANNELS 3 Zrotation Yrotation Xrotation
					JOINT LeftArm
					{
						OFFSET 14.919845 -0.000000 -5.502326
						CHANNELS 3 Zrotation Yrotation Xrotation
						JOINT LeftForeArm
						{
							OFFSET 28.739309 0.000003 -0.002588
							CHANNELS 3 Zrotation Yrotation Xrotation
							JOINT LeftHand
							{
								OFFSET 27.093979 -0.000003 0.002609
								CHANNELS 3 Zrotation Yrotation Xrotation
								JOINT LeftHandThumb1
								{
									OFFSET 2.276480 -1.392045 3.191413
									CHANNELS 3 Zrotation Yrotation Xrotation
									JOINT LeftHandThumb2
									{
										OFFSET 4.012842 -1.828125 1.641655
										CHANNELS 3 Zrotation Yrotation Xrotation
										JOINT LeftHandThumb3
										{
											OFFSET 2.798516 0.000000 -0.000004
											CHANNELS 3 Zrotation Yrotation Xrotation
											JOINT LeftHandThumbEnd
											{
												OFFSET 3.180791 -0.000002 0.000003
												CHANNELS 3 Zrotation Yrotation Xrotation
												End Site
												{
													OFFSET 0.000000 0.000000 0.000000
												}
											}
										}
									}
								}
								JOINT LeftHandIndex1
								{
									OFFSET 3.247553 -0.531998 2.296170
									CHANNELS 3 Zrotation Yrotation Xrotation
									JOINT LeftHandIndex2
									{
										OFFSET 6.364580 0.012062 0.178599
										CHANNELS 3 Zrotation Yrotation Xrotation
										JOINT LeftHandIndex3
										{
											OFFSET 3.662366 0.000000 0.000000
											CHANNELS 3 Zrotation Yrotation Xrotation
											JOINT LeftHandIndex4
											{
												OFFSET 2.329243 0.000003 0.000004
												CHANNELS 3 Zrotation Yrotation Xrotation
												JOINT LeftHandIndexEnd
												{
													OFFSET 2.759619 -0.180540 -0.113024
													CHANNELS 3 Zrotation Yrotation Xrotation
													End Site
													{
														OFFSET 0.000000 0.000000 0.000000
													}
												}
											}
										}
									}
								}
								JOINT LeftHandMiddle1
								{
									OFFSET 3.163499 0.240983 1.000332
									CHANNELS 3 Zrotation Yrotation Xrotation
									JOINT LeftHandMiddle2
									{
										OFFSET 6.190777 -0.259276 -1.002548
										CHANNELS 3 Zrotation Yrotation Xrotation
										JOINT LeftHandMiddle3
										{
											OFFSET 4.356522 -0.000007 0.000000
											CHANNELS 3 Zrotation Yrotation Xrotation
											JOINT LeftHandMiddle4
											{
												OFFSET 2.996875 -0.000005 0.000001
												CHANNELS 3 Zrotation Yrotation Xrotation
												JOINT LeftHandMiddleEnd
												{
													OFFSET 2.304294 -0.294571 -0.031740
													CHANNELS 3 Zrotation Yrotation Xrotation
													End Site
													{
														OFFSET 0.000000 0.000000 0.000000
													}
												}
											}
										}
									}
								}
								JOINT LeftHandRing1
								{
									OFFSET 2.882642 -0.053650 -0.322543
									CHANNELS 3 Zrotation Yrotation Xrotation
									JOINT LeftHandRing2
									{
										OFFSET 5.854541 -0.486204 -1.373841
										CHANNELS 3 Zrotation Yrotation Xrotation
										JOINT LeftHandRing3
										{
											OFFSET 4.350581 -0.000000 0.000004
											CHANNELS 3 Zrotation Yrotation Xrotation
											JOINT LeftHandRing4
											{
												OFFSET 2.651324 0.000009 0.000004
												CHANNELS 3 Zrotation Yrotation Xrotation
												JOINT LeftHandRingEnd
												{
													OFFSET 1.936110 0.077685 -0.000070
													CHANNELS 3 Zrotation Yrotation Xrotation
													End Site
													{
														OFFSET 0.000000 0.000000 0.000000
													}
												}
											}
										}
									}
								}
								JOINT LeftHandPinky1
								{
									OFFSET 2.865499 -0.310004 -1.600378
									CHANNELS 3 Zrotation Yrotation Xrotation
									JOINT LeftHandPinky2
									{
										OFFSET 5.087852 -1.331142 -1.771231
										CHANNELS 3 Zrotation Yrotation Xrotation
										JOINT LeftHandPinky3
										{
											OFFSET 3.070976 0.000004 0.000000
											CHANNELS 3 Zrotation Yrotation Xrotation
											JOINT LeftHandPinky4
											{
												OFFSET 1.549667 0.000000 0.000001
												CHANNELS 3 Zrotation Yrotation Xrotation
												JOINT LeftHandPinkyEnd
												{
													OFFSET 1.944894 -0.157802 0.057219
													CHANNELS 3 Zrotation Yrotation Xrotation
													End Site
													{
														OFFSET 0.000000 0.000000 0.000000
													}
												}
											}
										}
									}
								}
							}
						}
					}
				}
				JOINT RightShoulder
				{
					OFFSET -1.380118 23.180307 5.214158
					CHANNELS 3 Zrotation Yrotation Xrotation
					JOINT RightArm
					{
						OFFSET -15.037197 0.000013 -5.545604
						CHANNELS 3 Zrotation Yrotation Xrotation
						JOINT RightForeArm
						{
							OFFSET -28.736639 0.000001 -0.002598
							CHANNELS 3 Zrotation Yrotation Xrotation
							JOINT RightHand
							{
								OFFSET -27.133619 0.000001 0.002612
								CHANNELS 3 Zrotation Yrotation Xrotation
								JOINT RightHandThumb1
								{
									OFFSET -2.274037 -1.383990 3.163127
									CHANNELS 3 Zrotation Yrotation Xrotation
									JOINT RightHandThumb2
									{
										OFFSET -4.011429 -1.827468 1.640914
										CHANNELS 3 Zrotation Yrotation Xrotation
										JOINT RightHandThumb3
										{
											OFFSET -2.794934 -0.000003 -0.000003
											CHANNELS 3 Zrotation Yrotation Xrotation
											JOINT RightHandThumbEnd
											{
												OFFSET -3.183855 0.000003 0.000001
												CHANNELS 3 Zrotation Yrotation Xrotation
												End Site
												{
													OFFSET 0.000000 0.000000 0.000000
												}
											}
										}
									}
								}
								JOINT RightHandIndex1
								{
									OFFSET -3.253269 -0.520060 2.282866
									CHANNELS 3 Zrotation Yrotation Xrotation
									JOINT RightHandIndex2
									{
										OFFSET -6.341918 0.012473 0.178265
										CHANNELS 3 Zrotation Yrotation Xrotation
										JOINT RightHandIndex3
										{
											OFFSET -3.654874 -0.000009 -0.000001
											CHANNELS 3 Zrotation Yrotation Xrotation
											JOINT RightHandIndex4
											{
												OFFSET -2.327587 0.000001 0.000001
												CHANNELS 3 Zrotation Yrotation Xrotation
												JOINT RightHandIndexEnd
												{
													OFFSET -2.761788 -0.180657 -0.113079
													CHANNELS 3 Zrotation Yrotation Xrotation
													End Site
													{
														OFFSET 0.000000 0.000000 0.000000
													}
												}
											}
										}
									}
								}
								JOINT RightHandMiddle1
								{
									OFFSET -3.168105 0.246593 1.001030
									CHANNELS 3 Zrotation Yrotation Xrotation
									JOINT RightHandMiddle2
									{
										OFFSET -6.180829 -0.258836 -1.000896
										CHANNELS 3 Zrotation Yrotation Xrotation
										JOINT RightHandMiddle3
										{
											OFFSET -4.348905 -0.000001 -0.000001
											CHANNELS 3 Zrotation Yrotation Xrotation
											JOINT RightHandMiddle4
											{
												OFFSET -3.000243 -0.000004 -0.000002
												CHANNELS 3 Zrotation Yrotation Xrotation
												JOINT RightHandMiddleEnd
												{
													OFFSET -2.302518 -0.294372 -0.031706
													CHANNELS 3 Zrotation Yrotation Xrotation
													End Site
													{
														OFFSET 0.000000 0.000000 0.000000
													}
												}
											}
										}
									}
								}
								JOINT RightHandRing1
								{
									OFFSET -2.885694 -0.067952 -0.308858
									CHANNELS 3 Zrotation Yrotation Xrotation
									JOINT RightHandRing2
									{
										OFFSET -5.854197 -0.486132 -1.373732
										CHANNELS 3 Zrotation Yrotation Xrotation
										JOINT RightHandRing3
										{
											OFFSET -4.338814 -0.000003 -0.000000
											CHANNELS 3 Zrotation Yrotation Xrotation
											JOINT RightHandRing4
											{
												OFFSET -2.654905 -0.000005 0.000004
												CHANNELS 3 Zrotation Yrotation Xrotation
												JOINT RightHandRingEnd
												{
													OFFSET -1.933570 0.077524 -0.000052
													CHANNELS 3 Zrotation Yrotation Xrotation
													End Site
													{
														OFFSET 0.000000 0.000000 0.000000
													}
												}
											}
										}
									}
								}
								JOINT RightHandPinky1
								{
									OFFSET -2.866429 -0.342798 -1.584145
									CHANNELS 3 Zrotation Yrotation Xrotation
									JOINT RightHandPinky2
									{
										OFFSET -5.091369 -1.332054 -1.772385
										CHANNELS 3 Zrotation Yrotation Xrotation
										JOINT RightHandPinky3
										{
											OFFSET -3.062666 -0.000007 0.000000
											CHANNELS 3 Zrotation Yrotation Xrotation
											JOINT RightHandPinky4
											{
												OFFSET -1.546526 0.000004 -0.000002
												CHANNELS 3 Zrotation Yrotation Xrotation
												JOINT RightHandPinkyEnd
												{
													OFFSET -1.945122 -0.157720 0.057211
													CHANNELS 3 Zrotation Yrotation Xrotation
													End Site
													{
														OFFSET 0.000000 0.000000 0.000000
													}
												}
											}
										}
									}
								}
							}
						}
					}
				}
			}
		}
	}
	JOINT LeftLeg
	{
		OFFSET 10.043214 -8.434527 2.595655
		CHANNELS 3 Zrotation Yrotation Xrotation
		JOINT LeftShin
		{
			OFFSET -0.000001 -43.221752 -0.802913
			CHANNELS 3 Zrotation Yrotation Xrotation
			JOINT LeftFoot
			{
				OFFSET 0.000001 -42.155094 -3.481523
				CHANNELS 3 Zrotation Yrotation Xrotation
				JOINT LeftToeBase
				{
					OFFSET 0.000000 -5.059475 13.231529
					CHANNELS 3 Zrotation Yrotation Xrotation
					JOINT LeftToeEnd
					{
						OFFSET -0.009607 -1.647615 6.513017
						CHANNELS 3 Zrotation Yrotation Xrotation
						End Site
						{
							OFFSET 0.000000 0.000000 0.000000
						}
					}
				}
			}
		}
	}
	JOINT RightLeg
	{
		OFFSET -10.047277 -8.295259 2.620317
		CHANNELS 3 Zrotation Yrotation Xrotation
		JOINT RightShin
		{
			OFFSET 0.000001 -43.362209 -0.805556
			CHANNELS 3 Zrotation Yrotation Xrotation
			JOINT RightFoot
			{
				OFFSET 0.000002 -42.117393 -3.478399
				CHANNELS 3 Zrotation Yrotation Xrotation
				JOINT RightToeBase
				{
					OFFSET -0.000001 -5.079609 13.284196
					CHANNELS 3 Zrotation Yrotation Xrotation
					JOINT RightToeEnd
					{
						OFFSET 0.009532 -1.634383 6.460591
						CHANNELS 3 Zrotation Yrotation Xrotation
						End Site
						{
							OFFSET 0.000000 0.000000 0.000000
						}
					}
				}
			}
		}
	}
}
MOTION
Frames: 4
Frame Time: 0.033333
1.088118 93.563210 3.536504 -0.875132 -3.151996 -1.915000 -0.978469 -0.437722 0.449719 -1.362238 -1.464118 -4.644337 -4.465906 -4.015938 12.081172 -6.126359 7.514372 18.944332 2.417271 12.169766 -3.432774 -2.419532 12.980803 -12.682451 0.000077 -0.000021 0.000005 0.002623 -0.044136 0.009103 0.652787 -3.780163 -10.682385 -0.653795 3.680537 -10.674412 0.108333 -9.207554 12.860604 -17.678028 -27.474405 -56.059326 -179.863892 -54.070576 179.575119 2.023195 -6.000563 1.261318 -5.882102 9.861278 0.702590 -10.936858 -0.360575 7.156197 -0.000002 8.774811 -0.000003 -16.941700 17.439613 5.488756 -1.844031 2.498502 -2.507276 -10.163589 4.678940 4.621105 -20.975996 -0.000004 0.000002 -21.226250 2.451693 -3.593992 0.000000 -0.000004 -0.000000 -1.362679 2.240796 -0.746322 -21.334892 0.584909 3.008322 -13.821195 -0.000001 0.000002 -23.887131 -0.249077 -0.839482 -59.830208 2.398872 -1.340360 -0.294024 1.679686 0.833256 -14.218192 0.093214 1.300578 -34.212006 -0.287563 0.967171 -20.033178 0.964537 1.212842 -0.000000 0.000001 0.000000 -3.440385 0.788232 0.501656 -15.928167 -3.167304 2.999705 -6.338817 -0.000001 0.000002 -18.123413 3.648176 -4.905660 -0.000004 0.000001 -0.000002 0.098684 -4.454751 15.527148 56.029572 81.970131 6.074099 -179.869247 43.840721 179.835571 -6.293271 -2.135067 -20.156122 2.243538 -5.255032 -3.180155 14.282875 -0.826592 6.952495 -0.000003 -12.690591 0.000001 15.656923 -17.358353 2.660113 1.665664 -1.955920 -2.878297 4.727796 -4.170584 4.993918 11.020510 0.000003 -0.000001 12.109033 -3.735711 -2.866779 0.000000 -0.000000 -0.000000 1.291984 -1.928548 -1.498089 14.800114 0.567469 3.865603 14.242553 -1.341734 -6.660649 19.631939 0.143927 -0.648243 49.142853 -0.947854 -6.378909 0.353028 -1.511150 -0.031940 20.222769 3.684308 2.316628 18.787249 0.000003 0.000001 10.751610 -0.479869 1.397905 0.000000 0.000002 0.000000 3.273807 0.305947 -0.580109 21.486788 11.830362 2.266130 8.162916 0.000000 0.000000 18.399054 -3.798980 -4.940567 0.000003 0.000000 -0.000001 18.297180 13.340972 -24.325949 -0.292684 -0.921601 29.452990 -16.114326 -2.809398 7.090654 1.678197 -1.802304 -0.385707 -0.000000 -0.000000 0.000002 -9.745376 -3.906806 -6.304984 0.124785 0.465350 33.911827 14.472326 1.777926 -24.116106 -1.449240 1.101381 0.023419 -0.000000 -0.000000 -0.000001 
1.265355 93.945274 3.676219 -0.631896 -2.923898 -1.314269 -0.922121 -0.425360 0.337062 -1.287546 -1.505449 -4.704832 -4.160822 -4.077859 11.911095 -6.009809 7.350856 18.271975 2.399882 12.182055 -3.411752 -2.695269 13.133171 -12.733771 0.000077 -0.000022 0.000006 0.007751 -0.051765 0.007994 0.664781 -3.791691 -10.682015 -0.658639 3.672682 -10.666373 0.186196 -9.318413 12.947494 -17.751837 -27.767712 -56.099556 -179.948578 -53.798405 179.583267 2.370577 -5.928052 1.295159 -5.882100 9.861277 0.702592 -10.936858 -0.360574 7.156196 -0.000001 8.774812 -0.000001 -16.942911 17.471262 5.461617 -1.844031 2.498502 -2.507275 -10.163589 4.678940 4.621105 -20.975996 -0.000004 0.000002 -21.226255 2.451693 -3.593994 0.000001 -0.000004 -0.000000 -1.362680 2.240796 -0.746321 -21.334892 0.584908 3.008321 -13.821197 -0.000002 0.000002 -23.887131 -0.249078 -0.839482 -59.890579 2.452775 -1.345630 -0.294023 1.679686 0.833256 -14.218194 0.093215 1.300579 -34.212013 -0.287565 0.967170 -20.033180 0.964537 1.212841 0.000001 0.000000 -0.000000 -3.440385 0.788232 0.501656 -15.928171 -3.167305 2.999704 -6.338818 0.000000 0.000002 -18.123413 3.648175 -4.905661 -0.000004 -0.000000 -0.000002 0.109443 -4.486980 15.378501 59.260052 82.062904 9.223907 179.868134 43.188549 179.706635 -6.030192 -2.443644 -20.454166 2.243541 -5.255032 -3.180155 14.282878 -0.826593 6.952497 -0.000003 -12.690588 -0.000001 15.686907 -17.337616 2.608800 1.665664 -1.955920 -2.878296 4.727793 -4.170584 4.993918 11.020512 0.000002 -0.000002 12.109034 -3.735710 -2.866779 0.000000 -0.000000 -0.000002 1.291985 -1.928547 -1.498090 14.800113 0.567467 3.865603 14.242553 -1.341736 -6.660649 19.631939 0.143927 -0.648243 49.208015 -0.913588 -6.383850 0.353028 -1.511149 -0.031941 20.222771 3.684306 2.316627 18.787247 0.000004 0.000000 10.751610 -0.479868 1.397904 -0.000000 0.000001 0.000000 3.273805 0.305947 -0.580110 21.486790 11.830360 2.266131 8.162917 0.000001 0.000000 18.399052 -3.798975 -4.940567 0.000003 0.000000 -0.000001 17.671822 13.217638 -23.946606 -0.273009 -0.860268 27.444403 -16.152605 -2.597071 7.370433 1.665926 -1.807052 -0.251024 -0.000000 -0.000000 0.000002 -10.032304 -4.001010 -6.240181 0.113200 0.480382 32.654163 14.566508 1.392841 -23.312374 -1.444545 1.094804 -0.052191 -0.000000 -0.000000 -0.000001 
1.455850 94.231651 3.867571 -0.402722 -2.621200 -0.805985 -0.865539 -0.397087 0.298037 -1.223208 -1.500890 -4.723991 -3.911310 -4.090986 11.778060 -5.953168 7.214164 17.696594 2.383736 12.153913 -3.424832 -2.930173 13.218699 -12.807456 0.000077 -0.000023 0.000006 0.014617 -0.074570 0.008581 0.680389 -3.811019 -10.695933 -0.660757 3.655018 -10.675278 0.276886 -9.441334 12.964300 -17.805386 -28.187714 -55.958111 179.859009 -53.627228 179.648087 2.710962 -5.894768 1.364270 -5.882101 9.861278 0.702590 -10.936859 -0.360575 7.156199 -0.000001 8.774811 -0.000002 -16.987444 17.484739 5.432118 -1.844032 2.498502 -2.507276 -10.163590 4.678939 4.621105 -20.975998 -0.000003 0.000002 -21.226255 2.451693 -3.593992 -0.000000 -0.000003 -0.000000 -1.362679 2.240797 -0.746324 -21.334896 0.584907 3.008321 -13.821197 -0.000002 0.000003 -23.887135 -0.249077 -0.839481 -60.023022 2.495461 -1.366135 -0.294025 1.679687 0.833255 -14.218194 0.093214 1.300579 -34.212013 -0.287563 0.967170 -20.033182 0.964534 1.212843 -0.000000 0.000001 -0.000001 -3.440386 0.788234 0.501656 -15.928171 -3.167306 2.999706 -6.338817 -0.000001 0.000003 -18.123415 3.648177 -4.905660 -0.000004 0.000001 -0.000002 0.073726 -4.392836 15.271194 61.252148 82.126846 11.008748 179.612595 42.640011 179.555817 -5.969938 -2.697204 -20.861544 2.243540 -5.255033 -3.180153 14.282877 -0.826594 6.952499 -0.000002 -12.690591 0.000001 15.711794 -17.278446 2.541782 1.665664 -1.955919 -2.878296 4.727794 -4.170582 4.993918 11.020513 0.000003 -0.000001 12.109031 -3.735711 -2.866778 0.000000 0.000000 0.000000 1.291986 -1.928548 -1.498088 14.800109 0.567470 3.865604 14.242553 -1.341735 -6.660647 19.631939 0.143926 -0.648242 49.278870 -0.872730 -6.405549 0.353030 -1.511150 -0.031939 20.222769 3.684308 2.316631 18.787249 0.000005 0.000001 10.751611 -0.479866 1.397905 -0.000000 0.000002 -0.000000 3.273803 0.305946 -0.580109 21.486792 11.830364 2.266132 8.162916 -0.000000 0.000001 18.399052 -3.798977 -4.940566 0.000003 -0.000002 -0.000001 17.054588 13.357949 -23.873182 -0.275660 -0.825026 26.204042 -16.141634 -2.651609 7.721333 1.658422 -1.791301 -0.118421 0.000000 0.000000 0.000002 -10.348153 -4.180902 -6.092334 0.111593 0.489870 31.577412 14.689799 1.028486 -22.719616 -1.443293 1.099775 -0.115876 -0.000000 0.000000 -0.000001 
1.669419 94.450821 3.996716 -0.182776 -2.371550 -0.376706 -0.821942 -0.347350 0.285482 -1.173627 -1.468559 -4.730995 -3.694118 -4.052532 11.689763 -5.978883 7.135897 17.225231 2.385794 12.128451 -3.429330 -3.145184 13.285488 -12.902868 0.000077 -0.000021 0.000006 0.018971 -0.092652 0.004927 0.692027 -3.831287 -10.710379 -0.663941 3.652080 -10.685208 0.317113 -9.586613 12.968332 -17.790453 -28.572674 -55.847454 179.804993 -53.598587 179.651123 3.018977 -5.881541 1.341960 -5.882100 9.861278 0.702589 -10.936856 -0.360575 7.156197 0.000002 8.774813 -0.000002 -17.041611 17.493387 5.399240 -1.844031 2.498503 -2.507276 -10.163589 4.678940 4.621105 -20.975996 -0.000003 0.000001 -21.226254 2.451694 -3.593994 0.000000 -0.000005 -0.000000 -1.362679 2.240796 -0.746322 -21.334887 0.584908 3.008320 -13.821197 -0.000005 0.000003 -23.887133 -0.249080 -0.839481 -60.159245 2.538033 -1.403621 -0.294024 1.679686 0.833253 -14.218192 0.093215 1.300580 -34.212002 -0.287564 0.967168 -20.033178 0.964535 1.212841 0.000000 0.000002 -0.000000 -3.440383 0.788233 0.501654 -15.928169 -3.167307 2.999704 -6.338817 -0.000001 0.000001 -18.123415 3.648175 -4.905662 -0.000004 0.000001 -0.000001 0.059401 -4.241083 15.184294 62.868603 82.181786 12.509867 179.426605 42.240204 179.529190 -5.983235 -2.929966 -21.205193 2.243540 -5.255033 -3.180155 14.282877 -0.826593 6.952495 -0.000001 -12.690586 -0.000001 15.736838 -17.262012 2.479243 1.665666 -1.955920 -2.878298 4.727794 -4.170582 4.993918 11.020510 0.000002 -0.000002 12.109032 -3.735708 -2.866780 -0.000000 0.000000 -0.000001 1.291984 -1.928547 -1.498089 14.800113 0.567468 3.865602 14.242553 -1.341735 -6.660650 19.631941 0.143927 -0.648243 49.321400 -0.852966 -6.422144 0.353028 -1.511150 -0.031941 20.222769 3.684304 2.316628 18.787245 0.000007 -0.000001 10.751611 -0.479866 1.397904 0.000000 0.000001 0.000000 3.273807 0.305946 -0.580111 21.486792 11.830361 2.266129 8.162916 0.000000 -0.000001 18.399055 -3.798980 -4.940568 0.000003 -0.000002 -0.000001 16.445377 13.577203 -23.905581 -0.269128 -0.807256 25.283154 -16.112211 -2.740560 8.023917 1.649968 -1.775285 -0.009331 0.000000 0.000000 0.000002 -10.693587 -4.412097 -6.054240 0.108277 0.506305 30.806061 14.837457 0.732113 -22.187210 -1.443446 1.094865 -0.147932 -0.000000 0.000000 -0.000001 
